<?xml version="1.0" encoding="utf-8"?>
<!-- Generator: Adobe Illustrator 16.0.0, SVG Export Plug-In . SVG Version: 6.00 Build 0)  -->
<!DOCTYPE svg PUBLIC "-//W3C//DTD SVG 1.1//EN" "http://www.w3.org/Graphics/SVG/1.1/DTD/svg11.dtd">
<svg version="1.1" id="Layer_1" xmlns="http://www.w3.org/2000/svg" xmlns:xlink="http://www.w3.org/1999/xlink" x="0px" y="0px"
	 width="24px" height="40px" viewBox="0 0 24 40" enable-background="new 0 0 24 40" xml:space="preserve">
<g>
	<path fill-rule="evenodd" clip-rule="evenodd" d="M4.76,39.18c-1.498-1.487-2.998-2.976-4.504-4.47
		c4.889-4.888,9.739-9.738,14.599-14.598C9.969,15.228,5.113,10.37,0.218,5.476c1.544-1.532,3.044-3.02,4.542-4.508
		c0.025,0,0.051,0,0.075,0C4.93,1.079,5.018,1.197,5.121,1.301c6.145,6.147,12.292,12.294,18.44,18.438
		c0.104,0.104,0.241,0.172,0.475,0.335c-0.232,0.163-0.371,0.231-0.475,0.335c-6.148,6.144-12.295,12.291-18.44,18.438
		C5.018,38.95,4.93,39.068,4.835,39.18C4.811,39.18,4.785,39.18,4.76,39.18z"/>
</g>
</svg>
