<?xml version="1.0" encoding="utf-8"?>
<!-- Generator: Adobe Illustrator 16.0.0, SVG Export Plug-In . SVG Version: 6.00 Build 0)  -->
<!DOCTYPE svg PUBLIC "-//W3C//DTD SVG 1.1//EN" "http://www.w3.org/Graphics/SVG/1.1/DTD/svg11.dtd">
<svg version="1.1" id="Layer_1" xmlns="http://www.w3.org/2000/svg" xmlns:xlink="http://www.w3.org/1999/xlink" x="0px" y="0px"
	 width="24px" height="40px" viewBox="0 0 24 40" enable-background="new 0 0 24 40" xml:space="preserve">
<g>
	<path fill-rule="evenodd" clip-rule="evenodd" d="M19.494,0.968c1.498,1.487,2.998,2.976,4.504,4.47
		c-4.889,4.888-9.739,9.738-14.599,14.598c4.886,4.884,9.741,9.742,14.637,14.636c-1.544,1.532-3.044,3.02-4.542,4.508
		c-0.025,0-0.051,0-0.075,0c-0.095-0.111-0.183-0.229-0.286-0.333c-6.145-6.147-12.292-12.294-18.44-18.438
		c-0.104-0.104-0.241-0.172-0.475-0.335c0.232-0.163,0.371-0.231,0.475-0.335c6.148-6.144,12.295-12.291,18.44-18.438
		c0.104-0.104,0.191-0.222,0.286-0.333C19.443,0.968,19.469,0.968,19.494,0.968z"/>
</g>
</svg>
